<svg xmlns="http://www.w3.org/2000/svg" version="1.1" xmlns:xlink="http://www.w3.org/1999/xlink" xmlns:svgjs="http://svgjs.com/svgjs" width="512" height="512" x="0" y="0" viewBox="0 0 32 32" style="enable-background:new 0 0 512 512" xml:space="preserve" class=""><g><g xmlns="http://www.w3.org/2000/svg" id="Layer_1"><g><path d="m16 31c-8.271 0-15-6.729-15-15s6.729-15 15-15 15 6.729 15 15-6.729 15-15 15zm0-28c-7.168 0-13 5.832-13 13s5.832 13 13 13 13-5.832 13-13-5.832-13-13-13z" fill="#fff" data-original="#fff" class=""></path></g><g><g><path d="m13.563 22h-2.243c-1.555 0-2.82-1.265-2.82-2.819v-6.361c0-1.555 1.265-2.82 2.819-2.82h2.243c.552 0 1 .448 1 1s-.448 1-1 1h-2.243c-.452 0-.819.368-.819.819v6.361c0 .452.368.819.819.819h2.243c.552 0 1 .448 1 1s-.447 1.001-.999 1.001z" fill="#fff" data-original="#fff" class=""></path></g><g><path d="m19.25 22c-.013 0-.025 0-.038 0-.447-.017-.828-.328-.934-.763l-2.438-10c-.131-.537.198-1.078.735-1.208.538-.125 1.078.198 1.208.735l1.604 6.578 2.161-6.65c.171-.524.734-.812 1.26-.642.525.171.813.735.642 1.26l-3.25 10c-.133.412-.518.69-.95.69z" fill="#fff" data-original="#fff" class=""></path></g></g></g></g></svg>